<mxfile host="app.diagrams.net" agent="Mozilla/5.0 (Windows NT 10.0; Win64; x64; rv:139.0) Gecko/20100101 Firefox/139.0" version="27.1.1">
  <diagram id="prtHgNgQTEPvFCAcTncT" name="Page-1">
    <mxGraphModel dx="1469" dy="813" grid="1" gridSize="10" guides="1" tooltips="1" connect="1" arrows="1" fold="1" page="1" pageScale="1" pageWidth="827" pageHeight="1169" math="0" shadow="0">
      <root>
        <mxCell id="0" />
        <mxCell id="1" parent="0" />
        <mxCell id="dNxyNK7c78bLwvsdeMH5-19" value="&lt;div&gt;Logiciel&lt;/div&gt;" style="swimlane;html=1;childLayout=stackLayout;resizeParent=1;resizeParentMax=0;horizontal=0;startSize=20;horizontalStack=0;" parent="1" vertex="1">
          <mxGeometry x="70" y="120" width="2460" height="530" as="geometry">
            <mxRectangle x="120" y="120" width="40" height="50" as="alternateBounds" />
          </mxGeometry>
        </mxCell>
        <mxCell id="UjG7xrtCHv7Pe8FlJSgA-53" style="edgeStyle=orthogonalEdgeStyle;rounded=0;orthogonalLoop=1;jettySize=auto;html=1;entryX=0.5;entryY=0;entryDx=0;entryDy=0;exitX=0.5;exitY=0;exitDx=0;exitDy=0;exitPerimeter=0;jumpStyle=arc;" parent="dNxyNK7c78bLwvsdeMH5-19" source="UjG7xrtCHv7Pe8FlJSgA-44" target="UjG7xrtCHv7Pe8FlJSgA-51" edge="1">
          <mxGeometry relative="1" as="geometry">
            <mxPoint x="830" y="255" as="sourcePoint" />
            <mxPoint x="1210" y="73.75" as="targetPoint" />
            <Array as="points">
              <mxPoint x="830" y="20" />
              <mxPoint x="1270" y="20" />
            </Array>
          </mxGeometry>
        </mxCell>
        <mxCell id="UjG7xrtCHv7Pe8FlJSgA-65" value="Consultation" style="edgeLabel;html=1;align=center;verticalAlign=middle;resizable=0;points=[];" parent="UjG7xrtCHv7Pe8FlJSgA-53" vertex="1" connectable="0">
          <mxGeometry x="-0.9641" y="-1" relative="1" as="geometry">
            <mxPoint x="-38" as="offset" />
          </mxGeometry>
        </mxCell>
        <mxCell id="dNxyNK7c78bLwvsdeMH5-20" value="Backend" style="swimlane;html=1;startSize=20;horizontal=0;" parent="dNxyNK7c78bLwvsdeMH5-19" vertex="1">
          <mxGeometry x="20" width="2440" height="170" as="geometry" />
        </mxCell>
        <mxCell id="UjG7xrtCHv7Pe8FlJSgA-18" style="edgeStyle=orthogonalEdgeStyle;rounded=0;orthogonalLoop=1;jettySize=auto;html=1;" parent="dNxyNK7c78bLwvsdeMH5-20" source="UjG7xrtCHv7Pe8FlJSgA-15" target="UjG7xrtCHv7Pe8FlJSgA-17" edge="1">
          <mxGeometry relative="1" as="geometry" />
        </mxCell>
        <mxCell id="UjG7xrtCHv7Pe8FlJSgA-15" value="Vérification du token de connexion" style="rounded=1;whiteSpace=wrap;html=1;" parent="dNxyNK7c78bLwvsdeMH5-20" vertex="1">
          <mxGeometry x="115" y="61.25" width="100" height="47.5" as="geometry" />
        </mxCell>
        <mxCell id="UjG7xrtCHv7Pe8FlJSgA-17" value="" style="strokeWidth=2;html=1;shape=mxgraph.flowchart.decision;whiteSpace=wrap;fillColor=#ffe6cc;strokeColor=#d79b00;" parent="dNxyNK7c78bLwvsdeMH5-20" vertex="1">
          <mxGeometry x="300" y="65" width="40" height="40" as="geometry" />
        </mxCell>
        <mxCell id="UjG7xrtCHv7Pe8FlJSgA-21" value="Est-ce que le token est toujours valide ?" style="text;html=1;align=center;verticalAlign=middle;whiteSpace=wrap;rounded=0;fillColor=#ffe6cc;strokeColor=#d79b00;" parent="dNxyNK7c78bLwvsdeMH5-20" vertex="1">
          <mxGeometry x="240" y="31.25" width="110" height="30" as="geometry" />
        </mxCell>
        <mxCell id="UjG7xrtCHv7Pe8FlJSgA-35" style="edgeStyle=orthogonalEdgeStyle;rounded=0;orthogonalLoop=1;jettySize=auto;html=1;" parent="dNxyNK7c78bLwvsdeMH5-20" source="UjG7xrtCHv7Pe8FlJSgA-31" target="UjG7xrtCHv7Pe8FlJSgA-34" edge="1">
          <mxGeometry relative="1" as="geometry" />
        </mxCell>
        <mxCell id="UjG7xrtCHv7Pe8FlJSgA-31" value="Vérification des informations de connexion" style="rounded=1;whiteSpace=wrap;html=1;" parent="dNxyNK7c78bLwvsdeMH5-20" vertex="1">
          <mxGeometry x="410" y="60.63" width="100" height="48.75" as="geometry" />
        </mxCell>
        <mxCell id="UjG7xrtCHv7Pe8FlJSgA-34" value="" style="strokeWidth=2;html=1;shape=mxgraph.flowchart.decision;whiteSpace=wrap;fillColor=#ffe6cc;strokeColor=#d79b00;" parent="dNxyNK7c78bLwvsdeMH5-20" vertex="1">
          <mxGeometry x="570" y="65" width="40" height="40" as="geometry" />
        </mxCell>
        <mxCell id="UjG7xrtCHv7Pe8FlJSgA-27" value="Les informations de connexions sont-elles correctes ?" style="text;html=1;align=center;verticalAlign=middle;whiteSpace=wrap;rounded=0;fillColor=#ffe6cc;strokeColor=#d79b00;" parent="dNxyNK7c78bLwvsdeMH5-20" vertex="1">
          <mxGeometry x="535" y="110" width="110" height="40" as="geometry" />
        </mxCell>
        <mxCell id="UjG7xrtCHv7Pe8FlJSgA-37" style="edgeStyle=orthogonalEdgeStyle;rounded=0;orthogonalLoop=1;jettySize=auto;html=1;entryX=0.5;entryY=0;entryDx=0;entryDy=0;exitX=0.5;exitY=0;exitDx=0;exitDy=0;exitPerimeter=0;flowAnimation=0;curved=0;" parent="dNxyNK7c78bLwvsdeMH5-20" source="UjG7xrtCHv7Pe8FlJSgA-34" target="UjG7xrtCHv7Pe8FlJSgA-4" edge="1">
          <mxGeometry relative="1" as="geometry">
            <mxPoint x="370" y="190" as="targetPoint" />
            <mxPoint x="710" y="90" as="sourcePoint" />
            <Array as="points">
              <mxPoint x="590" y="40" />
              <mxPoint x="390" y="40" />
              <mxPoint x="390" y="140" />
              <mxPoint x="320" y="140" />
            </Array>
          </mxGeometry>
        </mxCell>
        <mxCell id="UjG7xrtCHv7Pe8FlJSgA-38" value="Non" style="edgeLabel;html=1;align=center;verticalAlign=middle;resizable=0;points=[];" parent="UjG7xrtCHv7Pe8FlJSgA-37" vertex="1" connectable="0">
          <mxGeometry x="-0.7675" y="1" relative="1" as="geometry">
            <mxPoint x="12" y="17" as="offset" />
          </mxGeometry>
        </mxCell>
        <mxCell id="UjG7xrtCHv7Pe8FlJSgA-49" value="Récupération de la liste des patients" style="rounded=1;whiteSpace=wrap;html=1;" parent="dNxyNK7c78bLwvsdeMH5-20" vertex="1">
          <mxGeometry x="850" y="57.5" width="100" height="47.5" as="geometry" />
        </mxCell>
        <mxCell id="UjG7xrtCHv7Pe8FlJSgA-51" value="Récupération de la liste des consultations" style="rounded=1;whiteSpace=wrap;html=1;" parent="dNxyNK7c78bLwvsdeMH5-20" vertex="1">
          <mxGeometry x="1200" y="57.5" width="100" height="47.5" as="geometry" />
        </mxCell>
        <mxCell id="UjG7xrtCHv7Pe8FlJSgA-69" value="Patients" style="sketch=0;outlineConnect=0;fontColor=#232F3E;gradientColor=none;fillColor=#232F3D;strokeColor=none;dashed=0;verticalLabelPosition=middle;verticalAlign=middle;align=left;html=1;fontSize=12;fontStyle=0;aspect=fixed;pointerEvents=1;shape=mxgraph.aws4.document;labelPosition=right;" parent="dNxyNK7c78bLwvsdeMH5-20" vertex="1">
          <mxGeometry x="910" y="120" width="27" height="36.95" as="geometry" />
        </mxCell>
        <mxCell id="UjG7xrtCHv7Pe8FlJSgA-74" value="Récupération des détails du patient" style="rounded=1;whiteSpace=wrap;html=1;" parent="dNxyNK7c78bLwvsdeMH5-20" vertex="1">
          <mxGeometry x="1010" y="57.5" width="100" height="47.5" as="geometry" />
        </mxCell>
        <mxCell id="UjG7xrtCHv7Pe8FlJSgA-83" value="Consultations" style="sketch=0;outlineConnect=0;fontColor=#232F3E;gradientColor=none;fillColor=#232F3D;strokeColor=none;dashed=0;verticalLabelPosition=bottom;verticalAlign=top;align=center;html=1;fontSize=12;fontStyle=0;aspect=fixed;pointerEvents=1;shape=mxgraph.aws4.document;labelPosition=center;" parent="dNxyNK7c78bLwvsdeMH5-20" vertex="1">
          <mxGeometry x="1190" y="111.53" width="27" height="36.95" as="geometry" />
        </mxCell>
        <mxCell id="UjG7xrtCHv7Pe8FlJSgA-96" style="edgeStyle=orthogonalEdgeStyle;rounded=0;orthogonalLoop=1;jettySize=auto;html=1;entryX=0;entryY=0.5;entryDx=0;entryDy=0;" parent="dNxyNK7c78bLwvsdeMH5-20" source="UjG7xrtCHv7Pe8FlJSgA-92" target="UjG7xrtCHv7Pe8FlJSgA-95" edge="1">
          <mxGeometry relative="1" as="geometry" />
        </mxCell>
        <mxCell id="UjG7xrtCHv7Pe8FlJSgA-92" value="Création de la consultation" style="rounded=1;whiteSpace=wrap;html=1;" parent="dNxyNK7c78bLwvsdeMH5-20" vertex="1">
          <mxGeometry x="1310" y="57.5" width="100" height="47.5" as="geometry" />
        </mxCell>
        <mxCell id="UjG7xrtCHv7Pe8FlJSgA-95" value="Récupération information consultation" style="rounded=1;whiteSpace=wrap;html=1;" parent="dNxyNK7c78bLwvsdeMH5-20" vertex="1">
          <mxGeometry x="1440" y="57.5" width="100" height="47.5" as="geometry" />
        </mxCell>
        <mxCell id="UjG7xrtCHv7Pe8FlJSgA-127" style="edgeStyle=orthogonalEdgeStyle;rounded=0;orthogonalLoop=1;jettySize=auto;html=1;entryX=0.5;entryY=1;entryDx=0;entryDy=0;" parent="dNxyNK7c78bLwvsdeMH5-20" source="UjG7xrtCHv7Pe8FlJSgA-121" target="UjG7xrtCHv7Pe8FlJSgA-123" edge="1">
          <mxGeometry relative="1" as="geometry" />
        </mxCell>
        <mxCell id="UjG7xrtCHv7Pe8FlJSgA-123" value="Stockage permanent des photos" style="rounded=1;whiteSpace=wrap;html=1;" parent="dNxyNK7c78bLwvsdeMH5-20" vertex="1">
          <mxGeometry x="2240" y="31.25" width="100" height="47.5" as="geometry" />
        </mxCell>
        <mxCell id="05c0ySl-I6R-IfHnHKve-5" value="Récupération information partie du corps" style="rounded=1;whiteSpace=wrap;html=1;" parent="dNxyNK7c78bLwvsdeMH5-20" vertex="1">
          <mxGeometry x="1560" y="57.5" width="100" height="47.5" as="geometry" />
        </mxCell>
        <mxCell id="zuIX8__SBf8Scovnlpq9-9" value="Consultation" style="sketch=0;outlineConnect=0;fontColor=#232F3E;gradientColor=none;fillColor=#232F3D;strokeColor=none;dashed=0;verticalLabelPosition=bottom;verticalAlign=top;align=center;html=1;fontSize=12;fontStyle=0;aspect=fixed;pointerEvents=1;shape=mxgraph.aws4.document;labelPosition=center;" parent="dNxyNK7c78bLwvsdeMH5-20" vertex="1">
          <mxGeometry x="1440" y="110.00000000000001" width="27" height="36.95" as="geometry" />
        </mxCell>
        <mxCell id="zuIX8__SBf8Scovnlpq9-11" value="Informations" style="sketch=0;outlineConnect=0;fontColor=#232F3E;gradientColor=none;fillColor=#232F3D;strokeColor=none;dashed=0;verticalLabelPosition=bottom;verticalAlign=top;align=center;html=1;fontSize=12;fontStyle=0;aspect=fixed;pointerEvents=1;shape=mxgraph.aws4.document;labelPosition=center;" parent="dNxyNK7c78bLwvsdeMH5-20" vertex="1">
          <mxGeometry x="1700" y="113.05000000000001" width="27" height="36.95" as="geometry" />
        </mxCell>
        <mxCell id="UjG7xrtCHv7Pe8FlJSgA-121" value="Cryptage des images" style="rounded=1;whiteSpace=wrap;html=1;" parent="dNxyNK7c78bLwvsdeMH5-20" vertex="1">
          <mxGeometry x="2240" y="99.45" width="100" height="47.5" as="geometry" />
        </mxCell>
        <mxCell id="ndwFf35t_ehVGgKEiBcU-3" value="&lt;div&gt;Sauvegarde de l&#39;annotation&lt;/div&gt;" style="rounded=1;whiteSpace=wrap;html=1;" vertex="1" parent="dNxyNK7c78bLwvsdeMH5-20">
          <mxGeometry x="2000" y="99.44999999999999" width="100" height="47.5" as="geometry" />
        </mxCell>
        <mxCell id="UjG7xrtCHv7Pe8FlJSgA-11" style="edgeStyle=orthogonalEdgeStyle;rounded=0;orthogonalLoop=1;jettySize=auto;html=1;entryX=0.5;entryY=1;entryDx=0;entryDy=0;entryPerimeter=0;" parent="dNxyNK7c78bLwvsdeMH5-19" source="UjG7xrtCHv7Pe8FlJSgA-2" target="UjG7xrtCHv7Pe8FlJSgA-7" edge="1">
          <mxGeometry relative="1" as="geometry" />
        </mxCell>
        <mxCell id="UjG7xrtCHv7Pe8FlJSgA-19" style="edgeStyle=orthogonalEdgeStyle;rounded=0;orthogonalLoop=1;jettySize=auto;html=1;entryX=0.5;entryY=1;entryDx=0;entryDy=0;" parent="dNxyNK7c78bLwvsdeMH5-19" source="UjG7xrtCHv7Pe8FlJSgA-7" target="UjG7xrtCHv7Pe8FlJSgA-15" edge="1">
          <mxGeometry relative="1" as="geometry" />
        </mxCell>
        <mxCell id="UjG7xrtCHv7Pe8FlJSgA-20" value="Oui" style="edgeLabel;html=1;align=center;verticalAlign=middle;resizable=0;points=[];" parent="UjG7xrtCHv7Pe8FlJSgA-19" vertex="1" connectable="0">
          <mxGeometry x="0.2356" y="2" relative="1" as="geometry">
            <mxPoint x="17" y="70" as="offset" />
          </mxGeometry>
        </mxCell>
        <mxCell id="UjG7xrtCHv7Pe8FlJSgA-22" style="edgeStyle=orthogonalEdgeStyle;rounded=0;orthogonalLoop=1;jettySize=auto;html=1;" parent="dNxyNK7c78bLwvsdeMH5-19" source="UjG7xrtCHv7Pe8FlJSgA-17" target="UjG7xrtCHv7Pe8FlJSgA-4" edge="1">
          <mxGeometry relative="1" as="geometry" />
        </mxCell>
        <mxCell id="UjG7xrtCHv7Pe8FlJSgA-23" value="Non" style="edgeLabel;html=1;align=center;verticalAlign=middle;resizable=0;points=[];" parent="UjG7xrtCHv7Pe8FlJSgA-22" vertex="1" connectable="0">
          <mxGeometry x="-0.3663" y="3" relative="1" as="geometry">
            <mxPoint x="9" y="-25" as="offset" />
          </mxGeometry>
        </mxCell>
        <mxCell id="UjG7xrtCHv7Pe8FlJSgA-32" style="edgeStyle=orthogonalEdgeStyle;rounded=0;orthogonalLoop=1;jettySize=auto;html=1;entryX=0.5;entryY=1;entryDx=0;entryDy=0;" parent="dNxyNK7c78bLwvsdeMH5-19" source="UjG7xrtCHv7Pe8FlJSgA-26" target="UjG7xrtCHv7Pe8FlJSgA-31" edge="1">
          <mxGeometry relative="1" as="geometry">
            <Array as="points">
              <mxPoint x="480" y="150" />
              <mxPoint x="480" y="150" />
            </Array>
          </mxGeometry>
        </mxCell>
        <mxCell id="UjG7xrtCHv7Pe8FlJSgA-43" value="Oui" style="edgeLabel;html=1;align=center;verticalAlign=middle;resizable=0;points=[];" parent="UjG7xrtCHv7Pe8FlJSgA-32" vertex="1" connectable="0">
          <mxGeometry x="-0.7771" y="-4" relative="1" as="geometry">
            <mxPoint x="-24" as="offset" />
          </mxGeometry>
        </mxCell>
        <mxCell id="UjG7xrtCHv7Pe8FlJSgA-41" style="edgeStyle=orthogonalEdgeStyle;rounded=0;orthogonalLoop=1;jettySize=auto;html=1;entryX=0.5;entryY=0;entryDx=0;entryDy=0;" parent="dNxyNK7c78bLwvsdeMH5-19" source="UjG7xrtCHv7Pe8FlJSgA-34" target="UjG7xrtCHv7Pe8FlJSgA-40" edge="1">
          <mxGeometry relative="1" as="geometry">
            <Array as="points">
              <mxPoint x="680" y="150" />
              <mxPoint x="680" y="150" />
            </Array>
          </mxGeometry>
        </mxCell>
        <mxCell id="UjG7xrtCHv7Pe8FlJSgA-42" value="Oui" style="edgeLabel;html=1;align=center;verticalAlign=middle;resizable=0;points=[];" parent="UjG7xrtCHv7Pe8FlJSgA-41" vertex="1" connectable="0">
          <mxGeometry x="-0.7045" y="1" relative="1" as="geometry">
            <mxPoint x="-19" y="-14" as="offset" />
          </mxGeometry>
        </mxCell>
        <mxCell id="UjG7xrtCHv7Pe8FlJSgA-55" style="edgeStyle=orthogonalEdgeStyle;rounded=0;orthogonalLoop=1;jettySize=auto;html=1;entryX=0;entryY=0.5;entryDx=0;entryDy=0;exitX=1;exitY=0.5;exitDx=0;exitDy=0;exitPerimeter=0;" parent="dNxyNK7c78bLwvsdeMH5-19" source="UjG7xrtCHv7Pe8FlJSgA-44" target="UjG7xrtCHv7Pe8FlJSgA-49" edge="1">
          <mxGeometry relative="1" as="geometry">
            <Array as="points">
              <mxPoint x="860" y="255" />
              <mxPoint x="860" y="81" />
            </Array>
          </mxGeometry>
        </mxCell>
        <mxCell id="UjG7xrtCHv7Pe8FlJSgA-64" value="Patient" style="edgeLabel;html=1;align=center;verticalAlign=middle;resizable=0;points=[];" parent="UjG7xrtCHv7Pe8FlJSgA-55" vertex="1" connectable="0">
          <mxGeometry x="-0.804" y="-3" relative="1" as="geometry">
            <mxPoint x="22" as="offset" />
          </mxGeometry>
        </mxCell>
        <mxCell id="UjG7xrtCHv7Pe8FlJSgA-68" style="edgeStyle=orthogonalEdgeStyle;rounded=0;orthogonalLoop=1;jettySize=auto;html=1;entryX=0.5;entryY=0;entryDx=0;entryDy=0;" parent="dNxyNK7c78bLwvsdeMH5-19" source="UjG7xrtCHv7Pe8FlJSgA-49" target="UjG7xrtCHv7Pe8FlJSgA-59" edge="1">
          <mxGeometry relative="1" as="geometry" />
        </mxCell>
        <mxCell id="UjG7xrtCHv7Pe8FlJSgA-75" style="edgeStyle=orthogonalEdgeStyle;rounded=0;orthogonalLoop=1;jettySize=auto;html=1;entryX=0.5;entryY=1;entryDx=0;entryDy=0;" parent="dNxyNK7c78bLwvsdeMH5-19" source="UjG7xrtCHv7Pe8FlJSgA-62" target="UjG7xrtCHv7Pe8FlJSgA-74" edge="1">
          <mxGeometry relative="1" as="geometry">
            <Array as="points">
              <mxPoint x="1080" y="208" />
            </Array>
          </mxGeometry>
        </mxCell>
        <mxCell id="QZvbkXtrzYEEDabuCvIg-20" value="Affichage" style="edgeLabel;html=1;align=center;verticalAlign=middle;resizable=0;points=[];" parent="UjG7xrtCHv7Pe8FlJSgA-75" vertex="1" connectable="0">
          <mxGeometry x="-0.794" y="-2" relative="1" as="geometry">
            <mxPoint x="4" y="6" as="offset" />
          </mxGeometry>
        </mxCell>
        <mxCell id="UjG7xrtCHv7Pe8FlJSgA-77" style="edgeStyle=orthogonalEdgeStyle;rounded=0;orthogonalLoop=1;jettySize=auto;html=1;" parent="dNxyNK7c78bLwvsdeMH5-19" source="UjG7xrtCHv7Pe8FlJSgA-74" target="UjG7xrtCHv7Pe8FlJSgA-76" edge="1">
          <mxGeometry relative="1" as="geometry">
            <Array as="points">
              <mxPoint x="1150" y="80" />
            </Array>
          </mxGeometry>
        </mxCell>
        <mxCell id="UjG7xrtCHv7Pe8FlJSgA-82" style="edgeStyle=orthogonalEdgeStyle;rounded=0;orthogonalLoop=1;jettySize=auto;html=1;entryX=0.5;entryY=0;entryDx=0;entryDy=0;" parent="dNxyNK7c78bLwvsdeMH5-19" source="UjG7xrtCHv7Pe8FlJSgA-51" target="UjG7xrtCHv7Pe8FlJSgA-60" edge="1">
          <mxGeometry relative="1" as="geometry" />
        </mxCell>
        <mxCell id="UjG7xrtCHv7Pe8FlJSgA-93" style="edgeStyle=orthogonalEdgeStyle;rounded=0;orthogonalLoop=1;jettySize=auto;html=1;entryX=0.5;entryY=1;entryDx=0;entryDy=0;" parent="dNxyNK7c78bLwvsdeMH5-19" source="UjG7xrtCHv7Pe8FlJSgA-88" target="UjG7xrtCHv7Pe8FlJSgA-92" edge="1">
          <mxGeometry relative="1" as="geometry" />
        </mxCell>
        <mxCell id="UjG7xrtCHv7Pe8FlJSgA-99" value="Créer" style="edgeLabel;html=1;align=center;verticalAlign=middle;resizable=0;points=[];" parent="UjG7xrtCHv7Pe8FlJSgA-93" vertex="1" connectable="0">
          <mxGeometry x="-0.1594" y="-2" relative="1" as="geometry">
            <mxPoint x="-32" y="29" as="offset" />
          </mxGeometry>
        </mxCell>
        <mxCell id="UjG7xrtCHv7Pe8FlJSgA-97" style="edgeStyle=orthogonalEdgeStyle;rounded=0;orthogonalLoop=1;jettySize=auto;html=1;entryX=0.5;entryY=0;entryDx=0;entryDy=0;" parent="dNxyNK7c78bLwvsdeMH5-19" source="UjG7xrtCHv7Pe8FlJSgA-95" target="UjG7xrtCHv7Pe8FlJSgA-94" edge="1">
          <mxGeometry relative="1" as="geometry" />
        </mxCell>
        <mxCell id="UjG7xrtCHv7Pe8FlJSgA-98" style="edgeStyle=orthogonalEdgeStyle;rounded=0;orthogonalLoop=1;jettySize=auto;html=1;entryX=0;entryY=0.5;entryDx=0;entryDy=0;" parent="dNxyNK7c78bLwvsdeMH5-19" source="UjG7xrtCHv7Pe8FlJSgA-88" target="UjG7xrtCHv7Pe8FlJSgA-95" edge="1">
          <mxGeometry relative="1" as="geometry">
            <mxPoint x="1450" y="211.25" as="targetPoint" />
            <Array as="points">
              <mxPoint x="1440" y="211" />
              <mxPoint x="1440" y="81" />
            </Array>
          </mxGeometry>
        </mxCell>
        <mxCell id="UjG7xrtCHv7Pe8FlJSgA-100" value="Visualiser" style="edgeLabel;html=1;align=center;verticalAlign=middle;resizable=0;points=[];" parent="UjG7xrtCHv7Pe8FlJSgA-98" vertex="1" connectable="0">
          <mxGeometry x="-0.8526" y="-3" relative="1" as="geometry">
            <mxPoint y="-24" as="offset" />
          </mxGeometry>
        </mxCell>
        <mxCell id="UjG7xrtCHv7Pe8FlJSgA-118" style="edgeStyle=orthogonalEdgeStyle;rounded=0;orthogonalLoop=1;jettySize=auto;html=1;entryX=0.5;entryY=1;entryDx=0;entryDy=0;" parent="dNxyNK7c78bLwvsdeMH5-19" source="UjG7xrtCHv7Pe8FlJSgA-114" target="UjG7xrtCHv7Pe8FlJSgA-121" edge="1">
          <mxGeometry relative="1" as="geometry">
            <mxPoint x="2066" y="326.25" as="targetPoint" />
          </mxGeometry>
        </mxCell>
        <mxCell id="dNxyNK7c78bLwvsdeMH5-21" value="Frontend" style="swimlane;html=1;startSize=20;horizontal=0;" parent="dNxyNK7c78bLwvsdeMH5-19" vertex="1">
          <mxGeometry x="20" y="170" width="2440" height="180" as="geometry" />
        </mxCell>
        <mxCell id="UjG7xrtCHv7Pe8FlJSgA-14" style="edgeStyle=orthogonalEdgeStyle;rounded=0;orthogonalLoop=1;jettySize=auto;html=1;entryX=0;entryY=0.5;entryDx=0;entryDy=0;entryPerimeter=0;" parent="dNxyNK7c78bLwvsdeMH5-21" source="UjG7xrtCHv7Pe8FlJSgA-4" target="UjG7xrtCHv7Pe8FlJSgA-26" edge="1">
          <mxGeometry relative="1" as="geometry">
            <mxPoint x="410" y="85" as="targetPoint" />
          </mxGeometry>
        </mxCell>
        <mxCell id="UjG7xrtCHv7Pe8FlJSgA-4" value="Affichage de la page de login" style="rounded=1;whiteSpace=wrap;html=1;" parent="dNxyNK7c78bLwvsdeMH5-21" vertex="1">
          <mxGeometry x="270" y="61.25" width="100" height="47.5" as="geometry" />
        </mxCell>
        <mxCell id="UjG7xrtCHv7Pe8FlJSgA-9" style="edgeStyle=orthogonalEdgeStyle;rounded=0;orthogonalLoop=1;jettySize=auto;html=1;" parent="dNxyNK7c78bLwvsdeMH5-21" source="UjG7xrtCHv7Pe8FlJSgA-7" target="UjG7xrtCHv7Pe8FlJSgA-4" edge="1">
          <mxGeometry relative="1" as="geometry" />
        </mxCell>
        <mxCell id="UjG7xrtCHv7Pe8FlJSgA-10" value="Non" style="edgeLabel;html=1;align=center;verticalAlign=middle;resizable=0;points=[];spacing=2;" parent="UjG7xrtCHv7Pe8FlJSgA-9" vertex="1" connectable="0">
          <mxGeometry relative="1" as="geometry">
            <mxPoint x="-28" y="7" as="offset" />
          </mxGeometry>
        </mxCell>
        <mxCell id="UjG7xrtCHv7Pe8FlJSgA-7" value="" style="strokeWidth=2;html=1;shape=mxgraph.flowchart.decision;whiteSpace=wrap;fillColor=#ffe6cc;strokeColor=#d79b00;" parent="dNxyNK7c78bLwvsdeMH5-21" vertex="1">
          <mxGeometry x="145" y="65" width="40" height="40" as="geometry" />
        </mxCell>
        <mxCell id="UjG7xrtCHv7Pe8FlJSgA-8" value="L&#39;utilisateur a-t-il un token de connexion ? " style="text;html=1;align=center;verticalAlign=middle;whiteSpace=wrap;rounded=0;fillColor=#ffe6cc;strokeColor=#d79b00;" parent="dNxyNK7c78bLwvsdeMH5-21" vertex="1">
          <mxGeometry x="25" y="70" width="117" height="30" as="geometry" />
        </mxCell>
        <mxCell id="UjG7xrtCHv7Pe8FlJSgA-29" style="edgeStyle=orthogonalEdgeStyle;rounded=0;orthogonalLoop=1;jettySize=auto;html=1;exitX=0.5;exitY=1;exitDx=0;exitDy=0;exitPerimeter=0;entryX=0.5;entryY=1;entryDx=0;entryDy=0;" parent="dNxyNK7c78bLwvsdeMH5-21" source="UjG7xrtCHv7Pe8FlJSgA-26" target="UjG7xrtCHv7Pe8FlJSgA-4" edge="1">
          <mxGeometry relative="1" as="geometry">
            <mxPoint x="460" y="108.75" as="targetPoint" />
            <Array as="points">
              <mxPoint x="460" y="125" />
              <mxPoint x="320" y="125" />
            </Array>
          </mxGeometry>
        </mxCell>
        <mxCell id="UjG7xrtCHv7Pe8FlJSgA-30" value="Non" style="edgeLabel;html=1;align=center;verticalAlign=middle;resizable=0;points=[];" parent="UjG7xrtCHv7Pe8FlJSgA-29" vertex="1" connectable="0">
          <mxGeometry x="-0.4826" relative="1" as="geometry">
            <mxPoint x="6" y="-20" as="offset" />
          </mxGeometry>
        </mxCell>
        <mxCell id="UjG7xrtCHv7Pe8FlJSgA-26" value="" style="strokeWidth=2;html=1;shape=mxgraph.flowchart.decision;whiteSpace=wrap;fillColor=#ffe6cc;strokeColor=#d79b00;" parent="dNxyNK7c78bLwvsdeMH5-21" vertex="1">
          <mxGeometry x="440" y="65" width="40" height="40" as="geometry" />
        </mxCell>
        <mxCell id="UjG7xrtCHv7Pe8FlJSgA-36" value="L&#39;utilisateur a-t-il rentré les informations de connexion ? " style="text;html=1;align=center;verticalAlign=middle;whiteSpace=wrap;rounded=0;fillColor=#ffe6cc;strokeColor=#d79b00;" parent="dNxyNK7c78bLwvsdeMH5-21" vertex="1">
          <mxGeometry x="490" y="56.879999999999995" width="100" height="60" as="geometry" />
        </mxCell>
        <mxCell id="UjG7xrtCHv7Pe8FlJSgA-45" style="edgeStyle=orthogonalEdgeStyle;rounded=0;orthogonalLoop=1;jettySize=auto;html=1;" parent="dNxyNK7c78bLwvsdeMH5-21" source="UjG7xrtCHv7Pe8FlJSgA-40" target="UjG7xrtCHv7Pe8FlJSgA-44" edge="1">
          <mxGeometry relative="1" as="geometry" />
        </mxCell>
        <mxCell id="UjG7xrtCHv7Pe8FlJSgA-40" value="Affichage de la page d&#39;accueil" style="rounded=1;whiteSpace=wrap;html=1;" parent="dNxyNK7c78bLwvsdeMH5-21" vertex="1">
          <mxGeometry x="610" y="61.25" width="100" height="47.5" as="geometry" />
        </mxCell>
        <mxCell id="UjG7xrtCHv7Pe8FlJSgA-44" value="" style="strokeWidth=2;html=1;shape=mxgraph.flowchart.decision;whiteSpace=wrap;fillColor=#ffe6cc;strokeColor=#d79b00;" parent="dNxyNK7c78bLwvsdeMH5-21" vertex="1">
          <mxGeometry x="790" y="65" width="40" height="40" as="geometry" />
        </mxCell>
        <mxCell id="UjG7xrtCHv7Pe8FlJSgA-54" value="Choix de &lt;br&gt;la page" style="text;html=1;align=center;verticalAlign=middle;whiteSpace=wrap;rounded=0;fillColor=#ffe6cc;strokeColor=#d79b00;" parent="dNxyNK7c78bLwvsdeMH5-21" vertex="1">
          <mxGeometry x="778.5" y="110" width="63" height="30" as="geometry" />
        </mxCell>
        <mxCell id="UjG7xrtCHv7Pe8FlJSgA-59" value="Affichage des patients" style="rounded=1;whiteSpace=wrap;html=1;" parent="dNxyNK7c78bLwvsdeMH5-21" vertex="1">
          <mxGeometry x="850" y="13.75" width="100" height="47.5" as="geometry" />
        </mxCell>
        <mxCell id="UjG7xrtCHv7Pe8FlJSgA-60" value="Affichage des consultations" style="rounded=1;whiteSpace=wrap;html=1;" parent="dNxyNK7c78bLwvsdeMH5-21" vertex="1">
          <mxGeometry x="1200" y="17.5" width="100" height="47.5" as="geometry" />
        </mxCell>
        <mxCell id="UjG7xrtCHv7Pe8FlJSgA-72" style="edgeStyle=orthogonalEdgeStyle;rounded=0;orthogonalLoop=1;jettySize=auto;html=1;entryX=0.5;entryY=0;entryDx=0;entryDy=0;jumpStyle=arc;exitX=0.5;exitY=0;exitDx=0;exitDy=0;exitPerimeter=0;" parent="dNxyNK7c78bLwvsdeMH5-21" source="UjG7xrtCHv7Pe8FlJSgA-62" target="UjG7xrtCHv7Pe8FlJSgA-40" edge="1">
          <mxGeometry relative="1" as="geometry">
            <Array as="points">
              <mxPoint x="990" y="18" />
              <mxPoint x="990" y="-130" />
              <mxPoint x="660" y="-130" />
            </Array>
          </mxGeometry>
        </mxCell>
        <mxCell id="QZvbkXtrzYEEDabuCvIg-19" value="Retour" style="edgeLabel;html=1;align=center;verticalAlign=middle;resizable=0;points=[];" parent="UjG7xrtCHv7Pe8FlJSgA-72" vertex="1" connectable="0">
          <mxGeometry x="-0.9672" y="1" relative="1" as="geometry">
            <mxPoint x="-19" y="4" as="offset" />
          </mxGeometry>
        </mxCell>
        <mxCell id="UjG7xrtCHv7Pe8FlJSgA-62" value="" style="strokeWidth=2;html=1;shape=mxgraph.flowchart.decision;whiteSpace=wrap;fillColor=#ffe6cc;strokeColor=#d79b00;" parent="dNxyNK7c78bLwvsdeMH5-21" vertex="1">
          <mxGeometry x="970" y="17.5" width="40" height="40" as="geometry" />
        </mxCell>
        <mxCell id="UjG7xrtCHv7Pe8FlJSgA-67" style="edgeStyle=orthogonalEdgeStyle;rounded=0;orthogonalLoop=1;jettySize=auto;html=1;entryX=0;entryY=0.5;entryDx=0;entryDy=0;entryPerimeter=0;" parent="dNxyNK7c78bLwvsdeMH5-21" source="UjG7xrtCHv7Pe8FlJSgA-59" target="UjG7xrtCHv7Pe8FlJSgA-62" edge="1">
          <mxGeometry relative="1" as="geometry">
            <mxPoint x="980" y="41" as="targetPoint" />
          </mxGeometry>
        </mxCell>
        <mxCell id="UjG7xrtCHv7Pe8FlJSgA-71" value="Choix action" style="text;html=1;align=center;verticalAlign=middle;whiteSpace=wrap;rounded=0;fillColor=#ffe6cc;strokeColor=#d79b00;" parent="dNxyNK7c78bLwvsdeMH5-21" vertex="1">
          <mxGeometry x="960" y="65" width="60" height="30" as="geometry" />
        </mxCell>
        <mxCell id="QZvbkXtrzYEEDabuCvIg-15" style="edgeStyle=orthogonalEdgeStyle;rounded=0;orthogonalLoop=1;jettySize=auto;html=1;entryX=0.5;entryY=1;entryDx=0;entryDy=0;" parent="dNxyNK7c78bLwvsdeMH5-21" source="UjG7xrtCHv7Pe8FlJSgA-76" target="UjG7xrtCHv7Pe8FlJSgA-59" edge="1">
          <mxGeometry relative="1" as="geometry" />
        </mxCell>
        <mxCell id="UjG7xrtCHv7Pe8FlJSgA-76" value="Affichage du détail du patient" style="rounded=1;whiteSpace=wrap;html=1;" parent="dNxyNK7c78bLwvsdeMH5-21" vertex="1">
          <mxGeometry x="1080" y="110" width="100" height="47.5" as="geometry" />
        </mxCell>
        <mxCell id="zuIX8__SBf8Scovnlpq9-1" style="edgeStyle=orthogonalEdgeStyle;rounded=0;orthogonalLoop=1;jettySize=auto;html=1;entryX=0.5;entryY=1;entryDx=0;entryDy=0;" parent="dNxyNK7c78bLwvsdeMH5-21" source="UjG7xrtCHv7Pe8FlJSgA-88" target="UjG7xrtCHv7Pe8FlJSgA-40" edge="1">
          <mxGeometry relative="1" as="geometry">
            <Array as="points">
              <mxPoint x="1360" y="170" />
              <mxPoint x="660" y="170" />
            </Array>
          </mxGeometry>
        </mxCell>
        <mxCell id="zuIX8__SBf8Scovnlpq9-2" value="Retour" style="edgeLabel;html=1;align=center;verticalAlign=middle;resizable=0;points=[];" parent="zuIX8__SBf8Scovnlpq9-1" vertex="1" connectable="0">
          <mxGeometry x="-0.9431" relative="1" as="geometry">
            <mxPoint x="-20" y="-16" as="offset" />
          </mxGeometry>
        </mxCell>
        <mxCell id="UjG7xrtCHv7Pe8FlJSgA-88" value="" style="strokeWidth=2;html=1;shape=mxgraph.flowchart.decision;whiteSpace=wrap;fillColor=#ffe6cc;strokeColor=#d79b00;" parent="dNxyNK7c78bLwvsdeMH5-21" vertex="1">
          <mxGeometry x="1340" y="21.25" width="40" height="40" as="geometry" />
        </mxCell>
        <mxCell id="UjG7xrtCHv7Pe8FlJSgA-89" style="edgeStyle=orthogonalEdgeStyle;rounded=0;orthogonalLoop=1;jettySize=auto;html=1;entryX=0;entryY=0.5;entryDx=0;entryDy=0;entryPerimeter=0;" parent="dNxyNK7c78bLwvsdeMH5-21" source="UjG7xrtCHv7Pe8FlJSgA-60" target="UjG7xrtCHv7Pe8FlJSgA-88" edge="1">
          <mxGeometry relative="1" as="geometry" />
        </mxCell>
        <mxCell id="UjG7xrtCHv7Pe8FlJSgA-94" value="Affichage de la consultation" style="rounded=1;whiteSpace=wrap;html=1;" parent="dNxyNK7c78bLwvsdeMH5-21" vertex="1">
          <mxGeometry x="1440" y="17.5" width="100" height="47.5" as="geometry" />
        </mxCell>
        <mxCell id="QZvbkXtrzYEEDabuCvIg-7" style="edgeStyle=orthogonalEdgeStyle;rounded=0;orthogonalLoop=1;jettySize=auto;html=1;entryX=0;entryY=0.5;entryDx=0;entryDy=0;" parent="dNxyNK7c78bLwvsdeMH5-21" source="UjG7xrtCHv7Pe8FlJSgA-103" target="UjG7xrtCHv7Pe8FlJSgA-113" edge="1">
          <mxGeometry relative="1" as="geometry" />
        </mxCell>
        <mxCell id="UjG7xrtCHv7Pe8FlJSgA-103" value="Ajout de données pour la consultation" style="rounded=1;whiteSpace=wrap;html=1;" parent="dNxyNK7c78bLwvsdeMH5-21" vertex="1">
          <mxGeometry x="1760" y="108.75" width="100" height="47.5" as="geometry" />
        </mxCell>
        <mxCell id="UjG7xrtCHv7Pe8FlJSgA-107" value="" style="edgeStyle=orthogonalEdgeStyle;rounded=0;orthogonalLoop=1;jettySize=auto;html=1;entryX=0;entryY=0.5;entryDx=0;entryDy=0;entryPerimeter=0;" parent="dNxyNK7c78bLwvsdeMH5-21" source="UjG7xrtCHv7Pe8FlJSgA-94" target="05c0ySl-I6R-IfHnHKve-2" edge="1">
          <mxGeometry relative="1" as="geometry">
            <mxPoint x="1630" y="335" as="sourcePoint" />
            <mxPoint x="1490" y="102.5" as="targetPoint" />
            <Array as="points">
              <mxPoint x="1490" y="118" />
              <mxPoint x="1544" y="118" />
            </Array>
          </mxGeometry>
        </mxCell>
        <mxCell id="UjG7xrtCHv7Pe8FlJSgA-113" value="Sélection partie du corps" style="rounded=1;whiteSpace=wrap;html=1;" parent="dNxyNK7c78bLwvsdeMH5-21" vertex="1">
          <mxGeometry x="1890" y="108.75" width="100" height="47.5" as="geometry" />
        </mxCell>
        <mxCell id="05c0ySl-I6R-IfHnHKve-8" style="edgeStyle=orthogonalEdgeStyle;rounded=0;orthogonalLoop=1;jettySize=auto;html=1;entryX=0.5;entryY=1;entryDx=0;entryDy=0;jumpStyle=arc;" parent="dNxyNK7c78bLwvsdeMH5-21" source="05c0ySl-I6R-IfHnHKve-2" target="UjG7xrtCHv7Pe8FlJSgA-60" edge="1">
          <mxGeometry relative="1" as="geometry">
            <Array as="points">
              <mxPoint x="1610" y="150" />
              <mxPoint x="1250" y="150" />
            </Array>
          </mxGeometry>
        </mxCell>
        <mxCell id="05c0ySl-I6R-IfHnHKve-9" value="Retour" style="edgeLabel;html=1;align=center;verticalAlign=middle;resizable=0;points=[];" parent="05c0ySl-I6R-IfHnHKve-8" vertex="1" connectable="0">
          <mxGeometry x="-0.4514" y="-3" relative="1" as="geometry">
            <mxPoint x="83" y="11" as="offset" />
          </mxGeometry>
        </mxCell>
        <mxCell id="05c0ySl-I6R-IfHnHKve-13" style="edgeStyle=orthogonalEdgeStyle;rounded=0;orthogonalLoop=1;jettySize=auto;html=1;entryX=0;entryY=0.5;entryDx=0;entryDy=0;" parent="dNxyNK7c78bLwvsdeMH5-21" source="05c0ySl-I6R-IfHnHKve-2" target="UjG7xrtCHv7Pe8FlJSgA-103" edge="1">
          <mxGeometry relative="1" as="geometry">
            <Array as="points">
              <mxPoint x="1730" y="118" />
              <mxPoint x="1730" y="133" />
            </Array>
          </mxGeometry>
        </mxCell>
        <mxCell id="05c0ySl-I6R-IfHnHKve-14" value="Ajouter données &lt;br&gt;(si consultation non finie)" style="edgeLabel;html=1;align=center;verticalAlign=middle;resizable=0;points=[];" parent="05c0ySl-I6R-IfHnHKve-13" vertex="1" connectable="0">
          <mxGeometry x="-0.6182" relative="1" as="geometry">
            <mxPoint x="22" y="33" as="offset" />
          </mxGeometry>
        </mxCell>
        <mxCell id="05c0ySl-I6R-IfHnHKve-2" value="" style="strokeWidth=2;html=1;shape=mxgraph.flowchart.decision;whiteSpace=wrap;fillColor=#ffe6cc;strokeColor=#d79b00;" parent="dNxyNK7c78bLwvsdeMH5-21" vertex="1">
          <mxGeometry x="1590" y="97.5" width="40" height="40" as="geometry" />
        </mxCell>
        <mxCell id="05c0ySl-I6R-IfHnHKve-3" value="Choix action" style="text;html=1;align=center;verticalAlign=middle;whiteSpace=wrap;rounded=0;fillColor=#ffe6cc;strokeColor=#d79b00;" parent="dNxyNK7c78bLwvsdeMH5-21" vertex="1">
          <mxGeometry x="1630" y="71.88" width="60" height="33.75" as="geometry" />
        </mxCell>
        <mxCell id="UjG7xrtCHv7Pe8FlJSgA-90" value="Choix Action" style="text;html=1;align=center;verticalAlign=middle;whiteSpace=wrap;rounded=0;fillColor=#ffe6cc;strokeColor=#d79b00;" parent="dNxyNK7c78bLwvsdeMH5-21" vertex="1">
          <mxGeometry x="1370" y="55.63" width="60" height="28.12" as="geometry" />
        </mxCell>
        <mxCell id="QZvbkXtrzYEEDabuCvIg-2" value="Affichage des informations" style="rounded=1;whiteSpace=wrap;html=1;" parent="dNxyNK7c78bLwvsdeMH5-21" vertex="1">
          <mxGeometry x="1700" y="39.99999999999999" width="100" height="47.5" as="geometry" />
        </mxCell>
        <mxCell id="QZvbkXtrzYEEDabuCvIg-10" style="edgeStyle=orthogonalEdgeStyle;rounded=0;orthogonalLoop=1;jettySize=auto;html=1;entryX=0;entryY=0.5;entryDx=0;entryDy=0;" parent="dNxyNK7c78bLwvsdeMH5-21" source="QZvbkXtrzYEEDabuCvIg-6" target="ndwFf35t_ehVGgKEiBcU-1" edge="1">
          <mxGeometry relative="1" as="geometry">
            <mxPoint x="1996" y="63.799999999999955" as="targetPoint" />
          </mxGeometry>
        </mxCell>
        <mxCell id="QZvbkXtrzYEEDabuCvIg-11" value="Annoter les photos&lt;br&gt;(si consultation non finie)" style="edgeLabel;html=1;align=center;verticalAlign=middle;resizable=0;points=[];" parent="QZvbkXtrzYEEDabuCvIg-10" vertex="1" connectable="0">
          <mxGeometry x="0.1128" relative="1" as="geometry">
            <mxPoint x="-10" y="-24" as="offset" />
          </mxGeometry>
        </mxCell>
        <mxCell id="QZvbkXtrzYEEDabuCvIg-12" style="edgeStyle=orthogonalEdgeStyle;rounded=0;orthogonalLoop=1;jettySize=auto;html=1;entryX=1;entryY=0.5;entryDx=0;entryDy=0;jumpStyle=arc;" parent="dNxyNK7c78bLwvsdeMH5-21" source="QZvbkXtrzYEEDabuCvIg-6" target="UjG7xrtCHv7Pe8FlJSgA-94" edge="1">
          <mxGeometry relative="1" as="geometry">
            <Array as="points">
              <mxPoint x="1860" y="10" />
              <mxPoint x="1560" y="10" />
              <mxPoint x="1560" y="41" />
            </Array>
          </mxGeometry>
        </mxCell>
        <mxCell id="QZvbkXtrzYEEDabuCvIg-13" value="Retour" style="edgeLabel;html=1;align=center;verticalAlign=middle;resizable=0;points=[];" parent="QZvbkXtrzYEEDabuCvIg-12" vertex="1" connectable="0">
          <mxGeometry x="-0.913" y="-1" relative="1" as="geometry">
            <mxPoint x="-21" y="3" as="offset" />
          </mxGeometry>
        </mxCell>
        <mxCell id="ndwFf35t_ehVGgKEiBcU-7" style="edgeStyle=orthogonalEdgeStyle;rounded=0;orthogonalLoop=1;jettySize=auto;html=1;entryX=0;entryY=0.5;entryDx=0;entryDy=0;" edge="1" parent="dNxyNK7c78bLwvsdeMH5-21" source="QZvbkXtrzYEEDabuCvIg-6" target="ndwFf35t_ehVGgKEiBcU-6">
          <mxGeometry relative="1" as="geometry">
            <Array as="points">
              <mxPoint x="1960" y="64" />
              <mxPoint x="1960" y="100" />
              <mxPoint x="2130" y="100" />
              <mxPoint x="2130" y="64" />
            </Array>
          </mxGeometry>
        </mxCell>
        <mxCell id="ndwFf35t_ehVGgKEiBcU-8" value="&lt;div&gt;Super resolution&lt;/div&gt;&lt;div&gt;(si consultation non finie)&lt;/div&gt;" style="edgeLabel;html=1;align=center;verticalAlign=middle;resizable=0;points=[];" vertex="1" connectable="0" parent="ndwFf35t_ehVGgKEiBcU-7">
          <mxGeometry x="0.0995" y="-1" relative="1" as="geometry">
            <mxPoint x="40" y="17" as="offset" />
          </mxGeometry>
        </mxCell>
        <mxCell id="QZvbkXtrzYEEDabuCvIg-6" value="" style="strokeWidth=2;html=1;shape=mxgraph.flowchart.decision;whiteSpace=wrap;fillColor=#ffe6cc;strokeColor=#d79b00;" parent="dNxyNK7c78bLwvsdeMH5-21" vertex="1">
          <mxGeometry x="1840" y="43.75" width="40" height="40" as="geometry" />
        </mxCell>
        <mxCell id="QZvbkXtrzYEEDabuCvIg-8" style="edgeStyle=orthogonalEdgeStyle;rounded=0;orthogonalLoop=1;jettySize=auto;html=1;entryX=0;entryY=0.5;entryDx=0;entryDy=0;entryPerimeter=0;" parent="dNxyNK7c78bLwvsdeMH5-21" source="QZvbkXtrzYEEDabuCvIg-2" target="QZvbkXtrzYEEDabuCvIg-6" edge="1">
          <mxGeometry relative="1" as="geometry" />
        </mxCell>
        <mxCell id="QZvbkXtrzYEEDabuCvIg-9" value="Choix action" style="text;html=1;align=center;verticalAlign=middle;whiteSpace=wrap;rounded=0;fillColor=#ffe6cc;strokeColor=#d79b00;" parent="dNxyNK7c78bLwvsdeMH5-21" vertex="1">
          <mxGeometry x="1880" y="75" width="50" height="30" as="geometry" />
        </mxCell>
        <mxCell id="QZvbkXtrzYEEDabuCvIg-34" value="" style="group" parent="dNxyNK7c78bLwvsdeMH5-21" vertex="1" connectable="0">
          <mxGeometry x="520" y="125" width="44" height="44" as="geometry" />
        </mxCell>
        <mxCell id="QZvbkXtrzYEEDabuCvIg-32" value="" style="strokeWidth=1;html=1;shape=mxgraph.flowchart.decision;whiteSpace=wrap;fillColor=#e1d5e7;strokeColor=#9673a6;" parent="QZvbkXtrzYEEDabuCvIg-34" vertex="1">
          <mxGeometry width="44" height="44" as="geometry" />
        </mxCell>
        <mxCell id="QZvbkXtrzYEEDabuCvIg-31" value="" style="verticalLabelPosition=bottom;verticalAlign=top;html=1;shape=hexagon;perimeter=hexagonPerimeter2;arcSize=6;size=0.27;" parent="QZvbkXtrzYEEDabuCvIg-34" vertex="1">
          <mxGeometry x="10.37" y="10" width="23.27" height="21.88" as="geometry" />
        </mxCell>
        <mxCell id="QZvbkXtrzYEEDabuCvIg-36" value="Logout" style="text;html=1;align=center;verticalAlign=middle;whiteSpace=wrap;rounded=0;fillColor=#e1d5e7;strokeColor=#9673a6;" parent="dNxyNK7c78bLwvsdeMH5-21" vertex="1">
          <mxGeometry x="570" y="130" width="60" height="30" as="geometry" />
        </mxCell>
        <mxCell id="QZvbkXtrzYEEDabuCvIg-37" style="edgeStyle=orthogonalEdgeStyle;rounded=0;orthogonalLoop=1;jettySize=auto;html=1;entryX=1;entryY=0.5;entryDx=0;entryDy=0;" parent="dNxyNK7c78bLwvsdeMH5-21" source="QZvbkXtrzYEEDabuCvIg-32" target="zuIX8__SBf8Scovnlpq9-3" edge="1">
          <mxGeometry relative="1" as="geometry" />
        </mxCell>
        <mxCell id="zuIX8__SBf8Scovnlpq9-4" style="edgeStyle=orthogonalEdgeStyle;rounded=0;orthogonalLoop=1;jettySize=auto;html=1;entryX=0.5;entryY=1;entryDx=0;entryDy=0;" parent="dNxyNK7c78bLwvsdeMH5-21" source="zuIX8__SBf8Scovnlpq9-3" target="UjG7xrtCHv7Pe8FlJSgA-4" edge="1">
          <mxGeometry relative="1" as="geometry" />
        </mxCell>
        <mxCell id="zuIX8__SBf8Scovnlpq9-3" value="Suppression des données de connexion" style="rounded=1;whiteSpace=wrap;html=1;" parent="dNxyNK7c78bLwvsdeMH5-21" vertex="1">
          <mxGeometry x="270" y="130" width="100" height="47.5" as="geometry" />
        </mxCell>
        <mxCell id="zuIX8__SBf8Scovnlpq9-6" value="Patient" style="sketch=0;outlineConnect=0;fontColor=#232F3E;gradientColor=none;fillColor=#232F3D;strokeColor=none;dashed=0;verticalLabelPosition=bottom;verticalAlign=top;align=center;html=1;fontSize=12;fontStyle=0;aspect=fixed;pointerEvents=1;shape=mxgraph.aws4.document;labelPosition=center;" parent="dNxyNK7c78bLwvsdeMH5-21" vertex="1">
          <mxGeometry x="1151" y="28.049999999999972" width="27" height="36.95" as="geometry" />
        </mxCell>
        <mxCell id="zuIX8__SBf8Scovnlpq9-8" value="" style="endArrow=none;dashed=1;html=1;rounded=0;" parent="dNxyNK7c78bLwvsdeMH5-21" target="zuIX8__SBf8Scovnlpq9-6" edge="1">
          <mxGeometry width="50" height="50" relative="1" as="geometry">
            <mxPoint x="1130" y="50" as="sourcePoint" />
            <mxPoint x="1130" y="43.75" as="targetPoint" />
          </mxGeometry>
        </mxCell>
        <mxCell id="ndwFf35t_ehVGgKEiBcU-1" value="&lt;div&gt;Annotations de l&#39;image&lt;/div&gt;" style="rounded=1;whiteSpace=wrap;html=1;" vertex="1" parent="dNxyNK7c78bLwvsdeMH5-21">
          <mxGeometry x="2000" y="40" width="100" height="47.5" as="geometry" />
        </mxCell>
        <mxCell id="ndwFf35t_ehVGgKEiBcU-6" value="Utilisation super résolution sur l&#39;image" style="rounded=1;whiteSpace=wrap;html=1;" vertex="1" parent="dNxyNK7c78bLwvsdeMH5-21">
          <mxGeometry x="2150" y="40" width="100" height="47.5" as="geometry" />
        </mxCell>
        <mxCell id="dNxyNK7c78bLwvsdeMH5-22" value="Dermatologue" style="swimlane;html=1;startSize=20;horizontal=0;" parent="dNxyNK7c78bLwvsdeMH5-19" vertex="1">
          <mxGeometry x="20" y="350" width="2440" height="180" as="geometry" />
        </mxCell>
        <mxCell id="UjG7xrtCHv7Pe8FlJSgA-3" style="edgeStyle=orthogonalEdgeStyle;rounded=0;orthogonalLoop=1;jettySize=auto;html=1;entryX=0;entryY=0.5;entryDx=0;entryDy=0;" parent="dNxyNK7c78bLwvsdeMH5-22" source="UjG7xrtCHv7Pe8FlJSgA-1" target="UjG7xrtCHv7Pe8FlJSgA-2" edge="1">
          <mxGeometry relative="1" as="geometry" />
        </mxCell>
        <mxCell id="UjG7xrtCHv7Pe8FlJSgA-1" value="" style="ellipse;whiteSpace=wrap;html=1;aspect=fixed;fillColor=#d5e8d4;strokeColor=#82b366;verticalAlign=middle;" parent="dNxyNK7c78bLwvsdeMH5-22" vertex="1">
          <mxGeometry x="50" y="70" width="30" height="30" as="geometry" />
        </mxCell>
        <mxCell id="UjG7xrtCHv7Pe8FlJSgA-2" value="Ouvrir la page web du logiciel" style="rounded=1;whiteSpace=wrap;html=1;" parent="dNxyNK7c78bLwvsdeMH5-22" vertex="1">
          <mxGeometry x="120" y="62.5" width="90" height="45" as="geometry" />
        </mxCell>
        <mxCell id="UjG7xrtCHv7Pe8FlJSgA-114" value="Prise de photos en utilisant le boitier externe" style="rounded=1;whiteSpace=wrap;html=1;" parent="dNxyNK7c78bLwvsdeMH5-22" vertex="1">
          <mxGeometry x="2240" y="91" width="100" height="47.5" as="geometry" />
        </mxCell>
        <mxCell id="UjG7xrtCHv7Pe8FlJSgA-119" value="Photos &lt;br&gt;+ &lt;br&gt;Distances" style="sketch=0;outlineConnect=0;fontColor=#232F3E;gradientColor=none;fillColor=#232F3D;strokeColor=none;dashed=0;verticalLabelPosition=middle;verticalAlign=middle;align=right;html=1;fontSize=12;fontStyle=0;aspect=fixed;pointerEvents=1;shape=mxgraph.aws4.document;labelPosition=left;" parent="dNxyNK7c78bLwvsdeMH5-22" vertex="1">
          <mxGeometry x="2230" y="10" width="27" height="36.95" as="geometry" />
        </mxCell>
        <mxCell id="QZvbkXtrzYEEDabuCvIg-29" style="edgeStyle=orthogonalEdgeStyle;rounded=0;orthogonalLoop=1;jettySize=auto;html=1;" parent="dNxyNK7c78bLwvsdeMH5-22" source="QZvbkXtrzYEEDabuCvIg-26" target="QZvbkXtrzYEEDabuCvIg-27" edge="1">
          <mxGeometry relative="1" as="geometry" />
        </mxCell>
        <mxCell id="QZvbkXtrzYEEDabuCvIg-26" value="Fermeture de la page web" style="rounded=1;whiteSpace=wrap;html=1;" parent="dNxyNK7c78bLwvsdeMH5-22" vertex="1">
          <mxGeometry x="270" y="62.5" width="90" height="45" as="geometry" />
        </mxCell>
        <mxCell id="QZvbkXtrzYEEDabuCvIg-27" value="" style="ellipse;whiteSpace=wrap;html=1;aspect=fixed;fillColor=#f8cecc;strokeColor=#b85450;verticalAlign=middle;" parent="dNxyNK7c78bLwvsdeMH5-22" vertex="1">
          <mxGeometry x="390" y="70" width="30" height="30" as="geometry" />
        </mxCell>
        <mxCell id="05c0ySl-I6R-IfHnHKve-1" style="edgeStyle=orthogonalEdgeStyle;rounded=0;orthogonalLoop=1;jettySize=auto;html=1;entryX=0;entryY=0.5;entryDx=0;entryDy=0;" parent="dNxyNK7c78bLwvsdeMH5-19" source="UjG7xrtCHv7Pe8FlJSgA-113" target="UjG7xrtCHv7Pe8FlJSgA-114" edge="1">
          <mxGeometry relative="1" as="geometry">
            <Array as="points">
              <mxPoint x="1960" y="465" />
            </Array>
          </mxGeometry>
        </mxCell>
        <mxCell id="05c0ySl-I6R-IfHnHKve-6" style="edgeStyle=orthogonalEdgeStyle;rounded=0;orthogonalLoop=1;jettySize=auto;html=1;entryX=0.5;entryY=1;entryDx=0;entryDy=0;jumpStyle=arc;" parent="dNxyNK7c78bLwvsdeMH5-19" source="05c0ySl-I6R-IfHnHKve-2" target="05c0ySl-I6R-IfHnHKve-5" edge="1">
          <mxGeometry relative="1" as="geometry" />
        </mxCell>
        <mxCell id="05c0ySl-I6R-IfHnHKve-7" value="Affichage parti &lt;br&gt;du corps" style="edgeLabel;html=1;align=center;verticalAlign=middle;resizable=0;points=[];" parent="05c0ySl-I6R-IfHnHKve-6" vertex="1" connectable="0">
          <mxGeometry x="-0.7354" y="1" relative="1" as="geometry">
            <mxPoint x="-45" y="9" as="offset" />
          </mxGeometry>
        </mxCell>
        <mxCell id="QZvbkXtrzYEEDabuCvIg-3" style="edgeStyle=orthogonalEdgeStyle;rounded=0;orthogonalLoop=1;jettySize=auto;html=1;entryX=0.5;entryY=0;entryDx=0;entryDy=0;jumpStyle=arc;" parent="dNxyNK7c78bLwvsdeMH5-19" source="05c0ySl-I6R-IfHnHKve-5" target="QZvbkXtrzYEEDabuCvIg-2" edge="1">
          <mxGeometry relative="1" as="geometry" />
        </mxCell>
        <mxCell id="QZvbkXtrzYEEDabuCvIg-14" style="edgeStyle=orthogonalEdgeStyle;rounded=0;orthogonalLoop=1;jettySize=auto;html=1;entryX=1;entryY=0.5;entryDx=0;entryDy=0;" parent="dNxyNK7c78bLwvsdeMH5-19" source="UjG7xrtCHv7Pe8FlJSgA-123" target="UjG7xrtCHv7Pe8FlJSgA-94" edge="1">
          <mxGeometry relative="1" as="geometry">
            <Array as="points">
              <mxPoint x="1788" y="55" />
              <mxPoint x="1788" y="180" />
              <mxPoint x="1580" y="180" />
              <mxPoint x="1580" y="211" />
            </Array>
          </mxGeometry>
        </mxCell>
        <mxCell id="QZvbkXtrzYEEDabuCvIg-16" style="edgeStyle=orthogonalEdgeStyle;rounded=0;orthogonalLoop=1;jettySize=auto;html=1;entryX=0.5;entryY=0;entryDx=0;entryDy=0;" parent="dNxyNK7c78bLwvsdeMH5-19" source="UjG7xrtCHv7Pe8FlJSgA-17" target="UjG7xrtCHv7Pe8FlJSgA-40" edge="1">
          <mxGeometry relative="1" as="geometry">
            <Array as="points">
              <mxPoint x="380" y="85" />
              <mxPoint x="380" y="10" />
              <mxPoint x="680" y="10" />
            </Array>
          </mxGeometry>
        </mxCell>
        <mxCell id="QZvbkXtrzYEEDabuCvIg-18" value="Oui" style="edgeLabel;html=1;align=center;verticalAlign=middle;resizable=0;points=[];" parent="QZvbkXtrzYEEDabuCvIg-16" vertex="1" connectable="0">
          <mxGeometry x="-0.8834" y="1" relative="1" as="geometry">
            <mxPoint x="-9" y="1" as="offset" />
          </mxGeometry>
        </mxCell>
        <mxCell id="ndwFf35t_ehVGgKEiBcU-4" style="edgeStyle=orthogonalEdgeStyle;rounded=0;orthogonalLoop=1;jettySize=auto;html=1;" edge="1" parent="dNxyNK7c78bLwvsdeMH5-19" source="ndwFf35t_ehVGgKEiBcU-1" target="ndwFf35t_ehVGgKEiBcU-3">
          <mxGeometry relative="1" as="geometry" />
        </mxCell>
        <mxCell id="ndwFf35t_ehVGgKEiBcU-5" style="edgeStyle=orthogonalEdgeStyle;rounded=0;orthogonalLoop=1;jettySize=auto;html=1;entryX=0.732;entryY=0.204;entryDx=0;entryDy=0;entryPerimeter=0;" edge="1" parent="dNxyNK7c78bLwvsdeMH5-19" source="ndwFf35t_ehVGgKEiBcU-3" target="QZvbkXtrzYEEDabuCvIg-6">
          <mxGeometry relative="1" as="geometry" />
        </mxCell>
        <mxCell id="ndwFf35t_ehVGgKEiBcU-10" style="edgeStyle=orthogonalEdgeStyle;rounded=0;orthogonalLoop=1;jettySize=auto;html=1;entryX=0.5;entryY=1;entryDx=0;entryDy=0;" edge="1" parent="dNxyNK7c78bLwvsdeMH5-19" source="ndwFf35t_ehVGgKEiBcU-6" target="UjG7xrtCHv7Pe8FlJSgA-121">
          <mxGeometry relative="1" as="geometry">
            <Array as="points">
              <mxPoint x="2310" y="234" />
            </Array>
          </mxGeometry>
        </mxCell>
        <mxCell id="QZvbkXtrzYEEDabuCvIg-23" value="" style="endArrow=none;dashed=1;html=1;rounded=0;" parent="1" target="UjG7xrtCHv7Pe8FlJSgA-69" edge="1">
          <mxGeometry width="50" height="50" relative="1" as="geometry">
            <mxPoint x="990" y="260" as="sourcePoint" />
            <mxPoint x="1050" y="370" as="targetPoint" />
          </mxGeometry>
        </mxCell>
        <mxCell id="QZvbkXtrzYEEDabuCvIg-24" value="" style="endArrow=none;dashed=1;html=1;rounded=0;" parent="1" source="UjG7xrtCHv7Pe8FlJSgA-83" edge="1">
          <mxGeometry width="50" height="50" relative="1" as="geometry">
            <mxPoint x="1000" y="420" as="sourcePoint" />
            <mxPoint x="1340" y="250" as="targetPoint" />
          </mxGeometry>
        </mxCell>
        <mxCell id="QZvbkXtrzYEEDabuCvIg-25" value="" style="endArrow=none;dashed=1;html=1;rounded=0;" parent="1" source="UjG7xrtCHv7Pe8FlJSgA-119" edge="1">
          <mxGeometry width="50" height="50" relative="1" as="geometry">
            <mxPoint x="1910" y="420" as="sourcePoint" />
            <mxPoint x="2380" y="500" as="targetPoint" />
          </mxGeometry>
        </mxCell>
        <mxCell id="zuIX8__SBf8Scovnlpq9-10" value="" style="endArrow=none;dashed=1;html=1;rounded=0;" parent="1" source="zuIX8__SBf8Scovnlpq9-9" edge="1">
          <mxGeometry width="50" height="50" relative="1" as="geometry">
            <mxPoint x="1660" y="450" as="sourcePoint" />
            <mxPoint x="1580" y="248" as="targetPoint" />
          </mxGeometry>
        </mxCell>
        <mxCell id="zuIX8__SBf8Scovnlpq9-12" value="" style="endArrow=none;dashed=1;html=1;rounded=0;" parent="1" source="zuIX8__SBf8Scovnlpq9-11" edge="1">
          <mxGeometry width="50" height="50" relative="1" as="geometry">
            <mxPoint x="1600" y="450" as="sourcePoint" />
            <mxPoint x="1840" y="252" as="targetPoint" />
          </mxGeometry>
        </mxCell>
      </root>
    </mxGraphModel>
  </diagram>
</mxfile>
